# xmcd
#
# Track frame offsets: 
#        150
#        13425
#        26852
#        41847
#        54939
#        69552
#        83591
#        97003
#        110119
#        124538
#        138374
#        152668
#        165629
#        179141
#        192831
#        206190
#        219294
#        232973
#        246374
#        259211
#        273239
#        286584
#        299715
#        313502
#        326026
#        339840
#
# Disc length: 4686 seconds
#
# Revision: 0
# Processed by: cddbd v1.5.2PL0 Copyright (c) Steve Scherf et al.
# Submitted via: ExactAudioCopy v1.0b3
#
DISCID=8c124c1a
DTITLE=Various Artist - The Johnson City Sessions Disc 2
DYEAR=1900
DGENRE=Country
TTITLE0=Bowman Sisters - My Old Kentucky Home
TTITLE1=Bowman Sisters - Swanee River
TTITLE2=Charlie Bowman and His Brothers - Roll On Buddy
TTITLE3=Charlie Bowman and His Brothers - Gonna Raise The Ruckus Tonight
TTITLE4=Bill and Belle Reed - You Shall Be Free
TTITLE5=Bill and Belle Reed - Old Lady And The Devil
TTITLE6=The Reed Children - I'll Be All Smiles Tonight
TTITLE7=The Reed Children - I Once Did Have A Sweetheart
TTITLE8=McVay and Johnson - Ain't Going To Lay My Armor Down
TTITLE9=McVay and Johnson - I'll Be Ready When The Bridegroom Comes
TTITLE10=Earl Shirkey and Roy Harper - Steamboat Man
TTITLE11=Earl Shirkey and Roy Harper - When The Roses Bloom For The Boot
TTITLE11=legger
TTITLE12=Earl Shirkey and Roy Harper - Poor Little Joe
TTITLE13=Earl Shirkey and Roy Harper - We Parted At The Gate
TTITLE14=George Roark - I Ain't A Bit Drunk
TTITLE15=George Roark - My Old Coon Dog
TTITLE16=Ed Helton Singers - A Storm On The Sea (The Sinking Of THe St
TTITLE16=eamship Vestris)
TTITLE17=Ed Helton Singers - My Old Cottage Home
TTITLE18=Garland Brothers and Grinstead - Just Over The River
TTITLE19=Garland Brothers and Grinstead - Beautiful
TTITLE20=McCartt Brothers and Patterson - Green Valley Waltz
TTITLE21=McCartt Brothers and Patterson - Over The Sea Waltz
TTITLE22=Blalock and Yates - Morning Star Waltz
TTITLE23=Blalock and Yates - Pride Of The Ball
TTITLE24=Jack Jackson - Flat Tire Blues
TTITLE25=Jack Jackson - My Alabama Home
EXTD=
EXTT0=
EXTT1=
EXTT2=
EXTT3=
EXTT4=
EXTT5=
EXTT6=
EXTT7=
EXTT8=
EXTT9=
EXTT10=
EXTT11=
EXTT12=
EXTT13=
EXTT14=
EXTT15=
EXTT16=
EXTT17=
EXTT18=
EXTT19=
EXTT20=
EXTT21=
EXTT22=
EXTT23=
EXTT24=
EXTT25=
PLAYORDER=
